<svg width="181" height="181" viewBox="0 0 181 181" fill="none" xmlns="http://www.w3.org/2000/svg">
<path d="M120.667 181H100.556V160.889H120.667V181ZM100.556 110.611H80.4444V160.889H100.556V110.611ZM181 90.5H160.889V130.722H181V90.5ZM160.889 70.3889H140.778V90.5H160.889V70.3889ZM40.2222 90.5H20.1111V110.611H40.2222V90.5ZM20.1111 70.3889H0V90.5H20.1111V70.3889ZM90.5 20.1111H110.611V0H90.5V20.1111ZM15.0833 15.0833V45.25H45.25V15.0833H15.0833ZM60.3333 60.3333H0V0H60.3333V60.3333ZM15.0833 135.75V165.917H45.25V135.75H15.0833ZM60.3333 181H0V120.667H60.3333V181ZM135.75 15.0833V45.25H165.917V15.0833H135.75ZM181 60.3333H120.667V0H181V60.3333ZM160.889 160.889V130.722H120.667V150.833H140.778V181H181V160.889H160.889ZM140.778 90.5H100.556V110.611H140.778V90.5ZM100.556 70.3889H40.2222V90.5H60.3333V110.611H80.4444V90.5H100.556V70.3889ZM110.611 60.3333V40.2222H90.5V20.1111H70.3889V60.3333H110.611ZM37.7083 22.625H22.625V37.7083H37.7083V22.625ZM37.7083 143.292H22.625V158.375H37.7083V143.292ZM158.375 22.625H143.292V37.7083H158.375V22.625Z" fill="black"/>
</svg>
