<svg width="22" height="21" viewBox="0 0 22 21" fill="none" xmlns="http://www.w3.org/2000/svg">
<path d="M13.4197 19.3904C17.6037 19.1134 20.9357 15.7334 21.2097 11.4904C21.2627 10.6604 21.2627 9.80042 21.2097 8.97042C20.9357 4.72842 17.6037 1.35042 13.4197 1.07142C11.9746 0.976192 10.5248 0.976192 9.07973 1.07142C4.89573 1.34942 1.56373 4.72842 1.28973 8.97142C1.23676 9.81059 1.23676 10.6523 1.28973 11.4914C1.38973 13.0364 2.07273 14.4674 2.87773 15.6754C3.34473 16.5204 3.03673 17.5754 2.54973 18.4984C2.19973 19.1634 2.02373 19.4954 2.16473 19.7354C2.30473 19.9754 2.61973 19.9834 3.24873 19.9984C4.49373 20.0284 5.33273 19.6764 5.99873 19.1854C6.37573 18.9064 6.56473 18.7674 6.69473 18.7514C6.82473 18.7354 7.08173 18.8414 7.59373 19.0514C8.05373 19.2414 8.58873 19.3584 9.07873 19.3914C10.5037 19.4854 11.9927 19.4854 13.4207 19.3914" stroke="#F2EBEC" stroke-width="1.5" stroke-linecap="round" stroke-linejoin="round"/>
<path d="M6.75 13.5L8.592 7.974C8.63824 7.83609 8.72664 7.7162 8.84471 7.63126C8.96278 7.54632 9.10455 7.50062 9.25 7.50062C9.39545 7.50062 9.53722 7.54632 9.65529 7.63126C9.77336 7.7162 9.86176 7.83609 9.908 7.974L11.75 13.5M14.75 7.5V13.5M7.75 11.5H10.75" stroke="#F2EBEC" stroke-width="1.5" stroke-linecap="round" stroke-linejoin="round"/>
</svg>
