<svg width="13" height="13" viewBox="0 0 13 13" fill="none" xmlns="http://www.w3.org/2000/svg">
<g clip-path="url(#clip0_55_2676)">
<path d="M3.25 8.125H2.925C2.20458 8.125 1.625 7.54542 1.625 6.825V2.925C1.625 2.20458 2.20458 1.625 2.925 1.625H6.825C7.54542 1.625 8.125 2.20458 8.125 2.925V3.25M6.175 4.875H10.075C10.4198 4.875 10.7504 5.01196 10.9942 5.25576C11.238 5.49956 11.375 5.83022 11.375 6.175V10.075C11.375 10.4198 11.238 10.7504 10.9942 10.9942C10.7504 11.238 10.4198 11.375 10.075 11.375H6.175C5.83022 11.375 5.49956 11.238 5.25576 10.9942C5.01196 10.7504 4.875 10.4198 4.875 10.075V6.175C4.875 6.00428 4.90863 5.83523 4.97396 5.67751C5.03929 5.51979 5.13505 5.37648 5.25576 5.25576C5.37648 5.13505 5.51979 5.03929 5.67751 4.97396C5.83523 4.90863 6.00428 4.875 6.175 4.875Z" stroke="#525354" stroke-width="1.5" stroke-miterlimit="10" stroke-linecap="round" stroke-linejoin="round"/>
</g>
<defs>
<clipPath id="clip0_55_2676">
<rect width="13" height="13" fill="white"/>
</clipPath>
</defs>
</svg>
