<svg width="18" height="19" viewBox="0 0 18 19" fill="none" xmlns="http://www.w3.org/2000/svg">
<path d="M15.2024 6.86375L15.7312 9.92375C15.7622 10.1031 15.7537 10.2871 15.7062 10.4628C15.6587 10.6385 15.5734 10.8017 15.4562 10.941C15.3391 11.0803 15.1929 11.1923 15.0279 11.2692C14.8629 11.3461 14.6832 11.3861 14.5012 11.3863H10.6154C10.5247 11.3862 10.4351 11.406 10.3528 11.444C10.2705 11.4821 10.1975 11.5377 10.1389 11.6069C10.0802 11.676 10.0373 11.7571 10.0131 11.8445C9.98895 11.9319 9.9841 12.0235 9.99891 12.113L10.4962 15.1467C10.5766 15.6396 10.5536 16.1438 10.4287 16.6273C10.3244 17.027 10.0162 17.3488 9.60966 17.4792L9.50091 17.5145C9.25491 17.5933 8.98716 17.5745 8.75541 17.4635C8.63081 17.4046 8.52059 17.3192 8.43249 17.2132C8.34439 17.1072 8.28054 16.9833 8.24541 16.85L7.88841 15.4745C7.77494 15.0367 7.60978 14.614 7.39641 14.2153C7.08516 13.6325 6.60366 13.1652 6.10266 12.734L5.02341 11.804C4.87368 11.6746 4.75675 11.5116 4.68218 11.3283C4.60761 11.145 4.57753 10.9467 4.59441 10.7495L5.20341 3.70475C5.23025 3.39319 5.37294 3.10302 5.6033 2.89155C5.83366 2.68007 6.13495 2.56266 6.44766 2.5625H9.93366C12.5452 2.5625 14.7734 4.382 15.2024 6.86375Z" fill="#525354"/>
<path fill-rule="evenodd" clip-rule="evenodd" d="M2.22606 11.9494C2.371 11.9557 2.51279 11.9058 2.6218 11.8101C2.73082 11.7144 2.79862 11.5802 2.81106 11.4357L3.53856 3.00866C3.55088 2.88317 3.5375 2.75648 3.49922 2.63634C3.46093 2.51619 3.39857 2.40511 3.31592 2.30988C3.23327 2.21465 3.13207 2.13727 3.01851 2.08246C2.90495 2.02765 2.78141 1.99657 2.65543 1.99111C2.52946 1.98564 2.40369 2.00592 2.28581 2.05069C2.16794 2.09547 2.06042 2.1638 1.96984 2.25152C1.87926 2.33924 1.80751 2.44451 1.75898 2.56089C1.71044 2.67727 1.68614 2.80232 1.68756 2.92841V11.3877C1.68743 11.5328 1.74338 11.6723 1.84374 11.7772C1.94409 11.882 2.08107 11.9432 2.22606 11.9494Z" fill="#525354"/>
</svg>
