<svg width="25" height="25" viewBox="0 0 25 25" fill="none" xmlns="http://www.w3.org/2000/svg">
<path d="M3.92188 3.5918H21.9219C22.1871 3.5918 22.4414 3.69715 22.629 3.88469C22.8165 4.07223 22.9219 4.32658 22.9219 4.5918V20.5918C22.9219 20.857 22.8165 21.1114 22.629 21.2989C22.4414 21.4864 22.1871 21.5918 21.9219 21.5918H3.92188C3.65666 21.5918 3.4023 21.4864 3.21477 21.2989C3.02723 21.1114 2.92188 20.857 2.92188 20.5918V4.5918C2.92188 4.32658 3.02723 4.07223 3.21477 3.88469C3.4023 3.69715 3.65666 3.5918 3.92188 3.5918ZM4.92188 5.5918V19.5918H20.9219V5.5918H4.92188ZM9.42188 14.5918H14.9219C15.0545 14.5918 15.1817 14.5391 15.2754 14.4454C15.3692 14.3516 15.4219 14.2244 15.4219 14.0918C15.4219 13.9592 15.3692 13.832 15.2754 13.7382C15.1817 13.6445 15.0545 13.5918 14.9219 13.5918H10.9219C10.2588 13.5918 9.62295 13.3284 9.15411 12.8596C8.68527 12.3907 8.42188 11.7548 8.42188 11.0918C8.42188 10.4288 8.68527 9.79287 9.15411 9.32403C9.62295 8.85519 10.2588 8.5918 10.9219 8.5918H11.9219V6.5918H13.9219V8.5918H16.4219V10.5918H10.9219C10.7893 10.5918 10.6621 10.6445 10.5683 10.7382C10.4746 10.832 10.4219 10.9592 10.4219 11.0918C10.4219 11.2244 10.4746 11.3516 10.5683 11.4454C10.6621 11.5391 10.7893 11.5918 10.9219 11.5918H14.9219C15.5849 11.5918 16.2208 11.8552 16.6896 12.324C17.1585 12.7929 17.4219 13.4288 17.4219 14.0918C17.4219 14.7548 17.1585 15.3907 16.6896 15.8596C16.2208 16.3284 15.5849 16.5918 14.9219 16.5918H13.9219V18.5918H11.9219V16.5918H9.42188V14.5918Z" fill="#FC4040"/>
</svg>
