<svg width="26" height="27" viewBox="0 0 26 27" fill="none" xmlns="http://www.w3.org/2000/svg">
<g clip-path="url(#clip0_36_2680)">
<path d="M13 0.5C11.3 0.5 10 1.8 10 3.5V9.5C10 11.2 11.3 12.5 13 12.5H19L23 16.5V12.5C24.7 12.5 26 11.2 26 9.5V3.5C26 1.8 24.7 0.5 23 0.5H13ZM17.188 3.5H18.906L20.594 9.5H19.094L18.687 8H17.187L16.813 9.5H15.5L17.188 3.5ZM18 4.5C17.9 4.9 17.788 5.388 17.687 5.688L17.407 7H18.594L18.312 5.687C18.113 5.388 18 4.9 18 4.5ZM3 10.5C1.3 10.5 0 11.8 0 13.5V19.5C0 21.2 1.3 22.5 3 22.5V26.5L7 22.5H13C14.7 22.5 16 21.2 16 19.5V13.5H13C11.1 13.5 9.594 12.2 9.094 10.5H3ZM7.594 13.406C9.294 13.406 10.094 14.806 10.094 16.406C10.094 17.806 9.613 18.694 8.813 19.094C9.213 19.294 9.687 19.4 10.187 19.5L9.813 20.5C9.113 20.3 8.387 19.988 7.687 19.687C7.587 19.587 7.412 19.594 7.312 19.594C6.112 19.494 5 18.5 5 16.5C5 14.8 5.994 13.406 7.594 13.406ZM7.594 14.5C6.794 14.5 6.406 15.4 6.406 16.5C6.406 17.7 6.794 18.5 7.594 18.5C8.394 18.5 8.812 17.6 8.812 16.5C8.812 15.4 8.394 14.5 7.594 14.5Z" fill="#F2EBEC"/>
</g>
<defs>
<clipPath id="clip0_36_2680">
<rect width="26" height="26" fill="white" transform="translate(0 0.5)"/>
</clipPath>
</defs>
</svg>
