<svg width="25" height="25" viewBox="0 0 25 25" fill="none" xmlns="http://www.w3.org/2000/svg">
<path d="M12.8824 1.58594L22.3507 7.05627V17.9969L12.8824 23.4673L3.41406 17.9969V7.05627L12.8824 1.58594ZM12.8824 3.88447L5.4074 8.20306V16.8502L12.8824 21.1687L20.3574 16.8502V8.20306L12.8824 3.88447ZM12.8824 16.505C11.8251 16.505 10.811 16.0859 10.0634 15.3398C9.31575 14.5937 8.89573 13.5818 8.89573 12.5266C8.89573 11.4715 9.31575 10.4595 10.0634 9.71344C10.811 8.96734 11.8251 8.54819 12.8824 8.54819C13.9397 8.54819 14.9538 8.96734 15.7014 9.71344C16.449 10.4595 16.8691 11.4715 16.8691 12.5266C16.8691 13.5818 16.449 14.5937 15.7014 15.3398C14.9538 16.0859 13.9397 16.505 12.8824 16.505ZM12.8824 14.5158C13.4111 14.5158 13.9181 14.3062 14.2919 13.9332C14.6657 13.5601 14.8757 13.0542 14.8757 12.5266C14.8757 11.999 14.6657 11.4931 14.2919 11.12C13.9181 10.747 13.4111 10.5374 12.8824 10.5374C12.3537 10.5374 11.8467 10.747 11.4729 11.12C11.0991 11.4931 10.8891 11.999 10.8891 12.5266C10.8891 13.0542 11.0991 13.5601 11.4729 13.9332C11.8467 14.3062 12.3537 14.5158 12.8824 14.5158Z" fill="#14AE5C"/>
</svg>
