<svg width="19" height="14" viewBox="0 0 19 14" fill="none" xmlns="http://www.w3.org/2000/svg">
<path fill-rule="evenodd" clip-rule="evenodd" d="M0 1.9332C0 1.42929 0.200178 0.946019 0.556497 0.5897C0.912816 0.233381 1.39609 0.0332031 1.9 0.0332031H17.1C17.6039 0.0332031 18.0872 0.233381 18.4435 0.5897C18.7998 0.946019 19 1.42929 19 1.9332V12.0665C19 12.5704 18.7998 13.0537 18.4435 13.41C18.0872 13.7664 17.6039 13.9665 17.1 13.9665H1.9C1.39609 13.9665 0.912816 13.7664 0.556497 13.41C0.200178 13.0537 0 12.5704 0 12.0665L0 1.9332ZM3.8 5.09987C3.8 4.42799 4.0669 3.78362 4.542 3.30853C5.01709 2.83344 5.66145 2.56654 6.33333 2.56654C7.00522 2.56654 7.64958 2.83344 8.12467 3.30853C8.59976 3.78362 8.86667 4.42799 8.86667 5.09987C8.86667 5.77175 8.59976 6.41611 8.12467 6.89121C7.64958 7.3663 7.00522 7.6332 6.33333 7.6332C5.66145 7.6332 5.01709 7.3663 4.542 6.89121C4.0669 6.41611 3.8 5.77175 3.8 5.09987ZM15.2 5.09987H11.4V3.8332H15.2V5.09987ZM15.2 8.89987H11.4V7.6332H15.2V8.89987ZM6.33333 8.89987C5.64489 8.9003 4.97014 9.09221 4.38451 9.45415C3.79889 9.81608 3.32547 10.3338 3.0172 10.9493L2.5992 11.7828C2.55077 11.8795 2.52788 11.9869 2.53272 12.0949C2.53756 12.2029 2.56997 12.3079 2.62686 12.3998C2.68374 12.4917 2.76321 12.5676 2.8577 12.6201C2.95219 12.6726 3.05856 12.7001 3.16667 12.6999H9.5C9.608 12.6999 9.71421 12.6722 9.80853 12.6196C9.90284 12.567 9.98214 12.4912 10.0389 12.3993C10.0956 12.3074 10.1279 12.2025 10.1327 12.0946C10.1375 11.9867 10.1146 11.8794 10.0662 11.7828L9.64947 10.9493C9.3412 10.3338 8.86778 9.81608 8.28216 9.45415C7.69653 9.09221 7.02178 8.9003 6.33333 8.89987Z" fill="#6C6969"/>
</svg>
