<svg width="18" height="19" viewBox="0 0 18 19" fill="none" xmlns="http://www.w3.org/2000/svg">
<path d="M15.2024 12.6989L15.7312 9.6389C15.7622 9.45955 15.7537 9.27559 15.7062 9.09988C15.6587 8.92417 15.5734 8.76096 15.4562 8.62166C15.3391 8.48236 15.1929 8.37034 15.0279 8.29343C14.8629 8.21652 14.6832 8.17658 14.5012 8.1764H10.6154C10.5247 8.17642 10.4351 8.1567 10.3528 8.1186C10.2705 8.08051 10.1975 8.02495 10.1389 7.9558C10.0802 7.88664 10.0373 7.80555 10.0131 7.71814C9.98895 7.63074 9.9841 7.53912 9.99891 7.44965L10.4962 4.4159C10.5765 3.92331 10.5535 3.41939 10.4287 2.93615C10.3748 2.73666 10.2715 2.55395 10.1283 2.40491C9.9852 2.25587 9.80681 2.1453 9.60966 2.0834L9.50091 2.04815C9.25499 1.96948 8.98832 1.98772 8.75541 2.09915C8.50041 2.22215 8.31441 2.4464 8.24541 2.71265L7.88841 4.08815C7.77494 4.52593 7.60978 4.94866 7.39641 5.3474C7.08516 5.93015 6.60366 6.3974 6.10266 6.82865L5.02341 7.75865C4.87368 7.88803 4.75675 8.05105 4.68218 8.23434C4.60761 8.41764 4.57753 8.61599 4.59441 8.81315L5.20341 15.8579C5.23025 16.1695 5.37294 16.4596 5.6033 16.6711C5.83366 16.8826 6.13495 17 6.44766 17.0002H9.93366C12.5452 17.0002 14.7734 15.1807 15.2024 12.6989Z" fill="#525354"/>
<path fill-rule="evenodd" clip-rule="evenodd" d="M2.22606 7.61382C2.371 7.60748 2.51279 7.65739 2.6218 7.75313C2.73082 7.84887 2.79862 7.98302 2.81106 8.12757L3.53856 16.5546C3.55088 16.6801 3.5375 16.8067 3.49922 16.9269C3.46093 17.047 3.39857 17.1581 3.31592 17.2533C3.23327 17.3486 3.13207 17.426 3.01851 17.4808C2.90495 17.5356 2.78141 17.5667 2.65543 17.5721C2.52946 17.5776 2.40369 17.5573 2.28581 17.5125C2.16794 17.4678 2.06042 17.3994 1.96984 17.3117C1.87926 17.224 1.80751 17.1187 1.75898 17.0023C1.71044 16.886 1.68614 16.7609 1.68756 16.6348V8.17557C1.68762 8.03058 1.74366 7.89122 1.844 7.78655C1.94433 7.68189 2.0812 7.62 2.22606 7.61382Z" fill="#525354"/>
</svg>
