<svg width="25" height="25" viewBox="0 0 25 25" fill="none" xmlns="http://www.w3.org/2000/svg">
<g clip-path="url(#clip0_42_3244)">
<path d="M22.8474 20.483H2.91406V18.4938H3.91073V11.5624C3.91073 6.60127 7.9273 2.58008 12.8807 2.58008C17.8342 2.58008 21.8507 6.60127 21.8507 11.5624V18.4938H22.8474V20.483ZM5.90406 18.4938H19.8574V11.5624C19.8574 7.70031 16.7338 4.56929 12.8807 4.56929C9.02762 4.56929 5.90406 7.70031 5.90406 11.5624V18.4938ZM10.3891 21.4776H15.3724C15.3724 22.1371 15.1099 22.7695 14.6426 23.2358C14.1753 23.7022 13.5416 23.9641 12.8807 23.9641C12.2199 23.9641 11.5861 23.7022 11.1189 23.2358C10.6516 22.7695 10.3891 22.1371 10.3891 21.4776V21.4776Z" fill="#025373" fill-opacity="0.86"/>
</g>
<defs>
<clipPath id="clip0_42_3244">
<rect width="23.92" height="23.8706" fill="white" transform="translate(0.921875 0.591797)"/>
</clipPath>
</defs>
</svg>
