<svg width="25" height="16" viewBox="0 0 25 16" fill="none" xmlns="http://www.w3.org/2000/svg">
<path d="M0.90625 7.99972C2.01168 5.83135 3.6951 4.01082 5.77048 2.73933C7.84585 1.46785 10.2324 0.794922 12.6663 0.794922C15.1001 0.794922 17.4867 1.46785 19.562 2.73933C21.6374 4.01082 23.3208 5.83135 24.4262 7.99972C23.3208 10.1681 21.6374 11.9886 19.562 13.2601C17.4867 14.5316 15.1001 15.2045 12.6663 15.2045C10.2324 15.2045 7.84585 14.5316 5.77048 13.2601C3.6951 11.9886 2.01168 10.1681 0.90625 7.99972ZM12.6663 12.7997C13.9393 12.7997 15.1602 12.294 16.0604 11.3938C16.9605 10.4937 17.4663 9.27276 17.4663 7.99972C17.4663 6.72668 16.9605 5.50579 16.0604 4.60561C15.1602 3.70544 13.9393 3.19972 12.6663 3.19972C11.3932 3.19972 10.1723 3.70544 9.27214 4.60561C8.37196 5.50579 7.86625 6.72668 7.86625 7.99972C7.86625 9.27276 8.37196 10.4937 9.27214 11.3938C10.1723 12.294 11.3932 12.7997 12.6663 12.7997ZM12.6663 10.3997C12.0297 10.3997 11.4193 10.1469 10.9692 9.69678C10.5191 9.24669 10.2663 8.63624 10.2663 7.99972C10.2663 7.3632 10.5191 6.75276 10.9692 6.30267C11.4193 5.85258 12.0297 5.59972 12.6663 5.59972C13.3028 5.59972 13.9132 5.85258 14.3633 6.30267C14.8134 6.75276 15.0663 7.3632 15.0663 7.99972C15.0663 8.63624 14.8134 9.24669 14.3633 9.69678C13.9132 10.1469 13.3028 10.3997 12.6663 10.3997Z" fill="#706F7D"/>
</svg>
