<svg width="19" height="22" viewBox="0 0 19 22" fill="none" xmlns="http://www.w3.org/2000/svg">
<g clip-path="url(#clip0_36_2492)">
<path d="M17.8571 14.8029C16.9198 13.7874 15.7823 12.9769 14.5164 12.4225C13.2504 11.8682 11.8833 11.582 10.5013 11.582C9.11928 11.582 7.75223 11.8682 6.48625 12.4225C5.22027 12.9769 4.0828 13.7874 3.14547 14.8029C3.00028 14.9627 2.91926 15.1704 2.91797 15.3863V18.8863C2.92104 19.1163 3.01458 19.3359 3.17834 19.4975C3.3421 19.659 3.56291 19.7496 3.79297 19.7496H17.2096C17.4417 19.7496 17.6643 19.6574 17.8284 19.4933C17.9924 19.3292 18.0846 19.1067 18.0846 18.8746V15.3746C18.0805 15.1628 17.9997 14.9597 17.8571 14.8029Z" fill="#6C6969"/>
<path d="M10.5013 10.4167C12.7565 10.4167 14.5846 8.5885 14.5846 6.33333C14.5846 4.07817 12.7565 2.25 10.5013 2.25C8.24614 2.25 6.41797 4.07817 6.41797 6.33333C6.41797 8.5885 8.24614 10.4167 10.5013 10.4167Z" fill="#6C6969"/>
</g>
<defs>
<clipPath id="clip0_36_2492">
<rect width="21" height="21" fill="white" transform="translate(0 0.5)"/>
</clipPath>
</defs>
</svg>
